<svg width="29" height="22" viewBox="0 0 29 22" fill="none" xmlns="http://www.w3.org/2000/svg">
<g clip-path="url(#clip0_2345_124989)">
<path d="M28.1758 3.84179V18.1621C28.1758 20.5762 26.9571 21.7832 24.4961 21.7832H4.22266C1.77344 21.7832 0.542969 20.5762 0.542969 18.1621V3.84179C0.542969 1.42773 1.77344 0.208984 4.22266 0.208984H24.4961C26.9571 0.208984 28.1758 1.42773 28.1758 3.84179ZM4.72656 16.627C4.72656 17.2363 5.24219 17.752 5.83985 17.752C6.47266 17.752 6.97656 17.2481 6.97656 16.627C6.97656 16.0059 6.47266 15.4902 5.83985 15.4902C5.24219 15.4902 4.72656 16.0176 4.72656 16.627ZM9.48438 15.877C9.05078 15.877 8.72266 16.2051 8.72266 16.627C8.72266 17.0488 9.0625 17.3887 9.48438 17.3887H17.1368C17.5469 17.3887 17.8868 17.0488 17.8868 16.627C17.8868 16.2051 17.5586 15.877 17.1368 15.877H9.48438ZM4.72656 12.7481C4.72656 13.3809 5.23047 13.8731 5.83985 13.8731C6.47266 13.8731 6.97656 13.3809 6.97656 12.7481C6.97656 12.1387 6.47266 11.6348 5.83985 11.6348C5.23047 11.6348 4.72656 12.1504 4.72656 12.7481ZM9.48438 12.0098C9.05078 12.0098 8.72266 12.3379 8.72266 12.7481C8.72266 13.1934 9.05078 13.5215 9.48438 13.5215H23.3008C23.7344 13.5215 24.0625 13.1934 24.0625 12.7481C24.0625 12.3379 23.7344 12.0098 23.3008 12.0098H9.48438ZM4.72656 9.06836C4.72656 9.67773 5.24219 10.1934 5.83985 10.1934C6.47266 10.1934 6.97656 9.68945 6.97656 9.06836C6.97656 8.43554 6.47266 7.94336 5.83985 7.94336C5.24219 7.94336 4.72656 8.44726 4.72656 9.06836ZM9.48438 8.30664C9.0625 8.30664 8.72266 8.6582 8.72266 9.06836C8.72266 9.47851 9.0625 9.81836 9.48438 9.81836H17.1368C17.5469 9.81836 17.8868 9.47851 17.8868 9.06836C17.8868 8.6582 17.5469 8.30664 17.1368 8.30664H9.48438ZM4.72656 5.37695C4.72656 5.9746 5.24219 6.50195 5.83985 6.50195C6.47266 6.50195 6.97656 5.98632 6.97656 5.37695C6.97656 4.74414 6.47266 4.25195 5.83985 4.25195C5.24219 4.25195 4.72656 4.75586 4.72656 5.37695ZM9.48438 4.60351C9.0625 4.60351 8.72266 4.94336 8.72266 5.37695C8.72266 5.7871 9.05078 6.11523 9.48438 6.11523H23.3008C23.7344 6.11523 24.0625 5.7871 24.0625 5.37695C24.0625 4.94336 23.7227 4.60351 23.3008 4.60351H9.48438Z" fill="black" fill-opacity="0.85"/>
</g>
<defs>
<clipPath id="clip0_2345_124989">
<rect width="27.9844" height="21.5742" fill="white" transform="translate(0.542969 0.208984)"/>
</clipPath>
</defs>
</svg>
