<svg width="27" height="25" viewBox="0 0 27 25" fill="none" xmlns="http://www.w3.org/2000/svg">
<g clip-path="url(#clip0_2345_144122)">
<path d="M14.4117 24.875C20.9391 24.875 26.3649 19.4492 26.3649 12.9219C26.3649 6.38281 20.9391 0.96875 14.4117 0.96875C7.87267 0.96875 2.45861 6.37109 2.45861 12.9101H4.4508C4.4508 7.37891 8.88048 2.97266 14.4117 2.97266C19.943 2.97266 24.3727 7.39063 24.3727 12.9219C24.3727 18.4531 19.943 22.9062 14.4117 22.8829C11.0719 22.871 8.1422 21.254 6.34923 18.7579C5.98595 18.2774 5.43517 18.125 4.94298 18.4179C4.47423 18.7109 4.34533 19.3554 4.74376 19.871C6.97033 22.8594 10.4625 24.875 14.4117 24.875ZM1.01721 10.6602C0.173456 10.6602 -0.0374812 11.2344 0.41955 11.8906L3.04455 15.6172C3.43126 16.1562 3.99376 16.1446 4.36876 15.6172L6.99376 11.879C7.43908 11.2344 7.22814 10.6602 6.39611 10.6602H1.01721Z" fill="black" fill-opacity="0.85"/>
<path d="M14.4101 19.6133C14.7265 19.6133 14.9609 19.3906 14.9609 19.0625V18.2421C16.7773 18.0664 18.1953 17.0118 18.1953 15.2422C18.1953 13.6485 17.1523 12.6876 15.125 12.3243L14.9609 12.2891V9.01953C15.793 9.17187 16.3789 9.67578 16.6133 10.4609C16.7422 10.8125 16.9531 11.0351 17.3398 11.0351C17.7383 11.0351 18.0195 10.7539 18.0195 10.3438C18.0195 10.2266 17.9961 10.1094 17.9726 9.98047C17.6562 8.71484 16.4609 7.84766 14.9609 7.67187V6.86328C14.9609 6.53516 14.7265 6.3125 14.4101 6.3125C14.082 6.3125 13.8476 6.53516 13.8476 6.86328V7.67187C12.0781 7.87109 10.8125 8.98437 10.8125 10.5781C10.8125 12.0664 11.8203 12.9571 13.7656 13.4141L13.8476 13.4375V16.9062C12.793 16.754 12.1836 16.1679 11.9844 15.3828C11.8555 14.9843 11.6094 14.7969 11.2695 14.7969C10.8711 14.7969 10.5898 15.0781 10.5898 15.4882C10.5898 15.6171 10.6133 15.7344 10.6367 15.8516C10.9765 17.1993 12.289 18.0665 13.8476 18.2188V19.0625C13.8476 19.3906 14.0937 19.6133 14.4101 19.6133ZM13.8476 11.996L13.7656 11.9726C12.7226 11.6679 12.2539 11.1992 12.2539 10.5078C12.2539 9.79297 12.8633 9.19531 13.8476 9.01953V11.996ZM14.9609 13.7188L15.2187 13.7774C16.3437 14.0938 16.7422 14.5743 16.7422 15.3243C16.7422 16.1446 16.1562 16.7656 14.9609 16.9062V13.7188Z" fill="black" fill-opacity="0.85"/>
</g>
<defs>
<clipPath id="clip0_2345_144122">
<rect width="26.5344" height="23.918" fill="white" transform="translate(0.183594 0.96875)"/>
</clipPath>
</defs>
</svg>
