<svg width="28" height="25" viewBox="0 0 28 25" fill="none" xmlns="http://www.w3.org/2000/svg">
<g clip-path="url(#clip0_2345_144202)">
<path d="M14.8804 24.0429C21.4078 24.0429 26.8336 18.6172 26.8336 12.0898C26.8336 5.55078 21.4078 0.136719 14.8804 0.136719C8.34142 0.136719 2.92736 5.53906 2.92736 12.0781H4.91955C4.91955 6.54688 9.34923 2.14063 14.8804 2.14063C20.4117 2.14063 24.8414 6.5586 24.8414 12.0898C24.8414 17.6211 20.4117 22.0742 14.8804 22.0508C11.5406 22.039 8.61095 20.4219 6.81798 17.9258C6.4547 17.4453 5.90392 17.2929 5.41173 17.5859C4.94298 17.8789 4.81408 18.5234 5.21251 19.039C7.43908 22.0273 10.9312 24.0429 14.8804 24.0429ZM1.48596 9.82813C0.642206 9.82813 0.431269 10.4023 0.8883 11.0586L3.5133 14.7851C3.90001 15.3242 4.46251 15.3125 4.83751 14.7851L7.46251 11.0469C7.90783 10.4023 7.69689 9.82813 6.86486 9.82813H1.48596Z" fill="black" fill-opacity="0.85"/>
<path d="M10.6133 16.9179C10.6133 17.3281 10.8828 17.6094 11.3047 17.6094H18.3828C18.793 17.6094 19.0977 17.3281 19.0977 16.9179C19.0977 16.5078 18.793 16.2383 18.3828 16.2383H13.3203C13.8125 15.8281 14.1758 15.1133 14.2813 14.3515C14.3047 14.164 14.3164 13.9883 14.3164 13.8125H17.1172C17.4922 13.8125 17.7735 13.5547 17.7735 13.1797C17.7735 12.8047 17.4922 12.5586 17.1172 12.5586H14.1875C14.1055 12.207 14.0118 11.8672 13.918 11.539H17.1172C17.4922 11.539 17.7735 11.2812 17.7735 10.9062C17.7735 10.5312 17.4922 10.2851 17.1172 10.2851H13.7188C13.7071 10.1679 13.6953 10.0508 13.6953 9.9336C13.6953 8.66797 14.5977 7.80078 16.1328 7.80078C17 7.80078 17.5157 8.01172 17.8907 8.0586C18.3243 8.08203 18.5586 7.82422 18.5586 7.4375C18.5586 7.13281 18.3946 6.88672 17.9844 6.72266C17.4453 6.5 16.7774 6.41797 16.0508 6.41797C13.6368 6.41797 12.1602 7.82422 12.1602 10.0273C12.1602 10.1211 12.1719 10.1914 12.1836 10.2851H11.293C10.9063 10.2851 10.6367 10.5312 10.6367 10.9062C10.6367 11.2812 10.9063 11.539 11.293 11.539H12.3711C12.4532 11.8789 12.5586 12.2187 12.6289 12.5586H11.293C10.9063 12.5586 10.6367 12.8047 10.6367 13.1797C10.6367 13.5547 10.9063 13.8125 11.293 13.8125H12.8282C12.8399 13.9414 12.8282 14.0586 12.8164 14.1992C12.6993 15.2305 12.0078 15.9336 11.211 16.1562C10.7774 16.2969 10.6133 16.5312 10.6133 16.9179Z" fill="black" fill-opacity="0.85"/>
</g>
<defs>
<clipPath id="clip0_2345_144202">
<rect width="26.5344" height="23.918" fill="white" transform="translate(0.652344 0.136719)"/>
</clipPath>
</defs>
</svg>
